<svg width="23" height="24" viewBox="0 0 23 24" fill="none" xmlns="http://www.w3.org/2000/svg">
<path opacity="0.3" d="M10.4519 8L9.89986 7.41L8.5805 6H3.74286V18H18.7143V8H10.4519ZM17.7786 16V17H10.2929V16C10.2929 14.67 12.7912 14 14.0357 14C15.2802 14 17.7786 14.67 17.7786 16ZM14.0357 9C15.065 9 15.9071 9.9 15.9071 11C15.9071 12.1 15.065 13 14.0357 13C13.0064 13 12.1643 12.1 12.1643 11C12.1643 9.9 13.0064 9 14.0357 9Z" fill="#F5F5F5"/>
<path d="M18.7143 6H11.2285L9.35711 4H3.74283C2.71354 4 1.88076 4.9 1.88076 6L1.8714 18C1.8714 19.1 2.71354 20 3.74283 20H18.7143C19.7435 20 20.5857 19.1 20.5857 18V8C20.5857 6.9 19.7435 6 18.7143 6ZM18.7143 18H3.74283V6H8.58047L10.4519 8H18.7143V18ZM14.0357 13C15.065 13 15.9071 12.1 15.9071 11C15.9071 9.9 15.065 9 14.0357 9C13.0064 9 12.1643 9.9 12.1643 11C12.1643 12.1 13.0064 13 14.0357 13ZM10.2928 16V17H17.7785V16C17.7785 14.67 15.2802 14 14.0357 14C12.7912 14 10.2928 14.67 10.2928 16Z" fill="#F5F5F5"/>
</svg>
