<svg width="23" height="24" viewBox="0 0 23 24" fill="none" xmlns="http://www.w3.org/2000/svg">
<g clip-path="url(#clip0_5_401)">
<path opacity="0.3" d="M10.3657 8L9.81821 7.41L8.50974 6H3.71198V18H18.56V8H10.3657ZM12.992 10H14.848V12H16.704V14H14.848V16H12.992V14H11.136V12H12.992V10Z" fill="#F5F5F5"/>
<path d="M18.56 6H11.136L9.28002 4H3.71202C2.68194 4 1.8653 4.89 1.8653 6L1.85602 18C1.85602 19.11 2.68194 20 3.71202 20H18.56C19.5901 20 20.416 19.11 20.416 18V8C20.416 6.89 19.5901 6 18.56 6ZM18.56 18H3.71202V6H8.50978L9.81826 7.41L10.3658 8H18.56V18ZM11.136 14H12.992V16H14.848V14H16.704V12H14.848V10H12.992V12H11.136V14Z" fill="#F5F5F5"/>
</g>
<defs>
<clipPath id="clip0_5_401">
<rect width="22.272" height="24" fill="white"/>
</clipPath>
</defs>
</svg>
